<svg xmlns="http://www.w3.org/2000/svg" xml:space="preserve" fill-rule="evenodd" stroke-linejoin="round" stroke-miterlimit="2" clip-rule="evenodd" viewBox="0 0 996 145">
  <g fill="#fff" fill-rule="nonzero">
    <path d="M31.186 77.84c.748-.452 1.948-1.652 3.598-3.6a172.402 172.368 0 0 1 4.727-6.302 172.794 172.76 0 0 0 4.727-6.299c3.75-4.499 6-7.124 6.75-7.874 2.25-2.25 4.05-3.376 5.402-3.376.6 0 1.274.225 2.025.674 1.05.452 2.625 1.277 4.727 2.477 1.65.6 2.625 2.025 2.924 4.274 0 1.951-.299 5.176-.899 9.675a202.629 202.59 0 0 1-.901 7.987 232.056 232.01 0 0 1-1.124 7.99c-.452 3.597-.375 8.997.225 16.198.6 1.05.973 1.575 1.123 1.575.6 0 1.05-.45 1.351-1.35 3.752-6.9 7.202-16.574 10.351-29.024 1.8-7.201 9.68-11.177 23.63-11.925 5.402 0 9.379-.301 11.927-.901a2.508 2.507 0 0 1 1.127-.225c.15 0 1.8.674 4.949 2.025 2.551 1.2 2.628 2.85.227 4.951-.15.148-.975.45-2.477.899-1.65.45-3.974.674-6.974.674-7.504 0-13.653.6-18.455 1.8-3 .75-4.952 2.625-5.85 5.625-.151.75-.488 2.063-1.014 3.937a853.075 852.91 0 0 1-1.236 4.39c-2.853 9.45-4.728 15.225-5.627 17.324-1.052 3-2.59 6.075-4.614 9.225s-4.09 4.724-6.188 4.724c-2.702 0-5.177-1.312-7.427-3.937s-3.675-5.362-4.275-8.212c-.902-4.65-1.351-10.576-1.351-17.774 0-.452-.225-.676-.674-.676-.302 0-.6.15-.902.449-.15.15-.488.677-1.011 1.575a40.34 40.332 0 0 0-1.239 2.25c-9.153 16.352-17.552 24.525-25.204 24.525a7.597 7.595 0 0 1-4.278-1.348c-2.4-1.2-4.124-2.176-5.174-2.926a35.533 35.526 0 0 0-5.401-3.376c-5.25-2.699-8.103-7.05-8.553-13.05-1.05-17.999 4.352-34.348 16.204-49.05 1.349-1.65 2.7-2.85 4.05-3.598 1.201-.901 2.401-1.35 3.602-1.35 1.2 0 2.4.6 3.6 1.8 1.05 1.049 2.774 2.024 5.175 2.923 4.502 1.652 7.202 3.526 8.103 5.625.45 1.2.376 2.4-.225 3.6-.6.902-1.425 2.4-2.477 4.502l-2.25 4.5a49.166 49.157 0 0 0-5.401 15.973c0 1.052.224 1.726.677 2.027Z"/>
    <path d="M121.163 63.522c0 .115-.088.35-.263.701-.176.353-.263.586-.263.704 0 .822.117 1.937.35 3.343 1.409 6.217 4.81 9.327 10.209 9.327a16.141 16.138 0 0 0 5.456-.88c2.696-.704 5.631-2.345 8.797-4.926 3.403-2.346 6.69-5.22 9.857-8.623l5.982-5.981c.823-.704 1.527-1.058 2.113-1.058.469 0 1.113.236 1.935.704l4.223 2.113c1.29.937 1.527 2.11.704 3.518-3.518 5.044-8.739 10.236-15.661 15.574-6.923 5.334-12.965 8.003-18.128 8.003-3.87 0-8.24-1.406-13.11-4.222-4.87-2.814-8.184-5.924-9.943-9.324-2.581-5.162-3.316-10.617-2.2-16.366 1.115-5.745 3.784-10.496 8.007-14.25.236-.236.644-.529 1.233-.88.587-.353.995-.646 1.23-.88 1.642-.939 3.286-1.407 4.928-1.407 1.29 0 2.464.232 3.522.704 1.172.468 2.814 1.29 4.927 2.463 2.11 1.406 3.549 3.282 4.31 5.63.762 2.346.617 4.691-.44 7.037a16.533 16.53 0 0 1-5.366 6.95c-2.407 1.82-5.076 2.727-8.008 2.727-1.644 0-3.11-.233-4.401-.701Zm10.559-15.133c0-.469-.058-.822-.176-1.058-.233-.937-.761-1.405-1.584-1.405a1.957 1.956 0 0 0-.88.175c-1.523.35-3.08 1.554-4.664 3.606-1.584 2.055-2.608 3.96-3.077 5.718-.471 1.176-.471 1.995 0 2.466.233.233.586.35 1.055.35.586 0 .998-.057 1.23-.175l1.584-.528c1.995-.822 3.61-2.083 4.84-3.784 1.233-1.699 1.79-3.488 1.672-5.365Zm67.053 27.624c0-1.641.175-3.343.526-5.102 2.817-8.447 7.04-15.368 12.672-20.763 5.632-5.395 12.554-8.094 20.767-8.094 2.815 0 5.339.704 7.567 2.113 1.526.819 3.05 1.58 4.576 2.285 1.173.586 1.935 1.35 2.288 2.288.351.586.409.997.176 1.233-.118.117-.324.468-.617 1.055-.293.586-.529.967-.704 1.142-.175.178-.439.411-.792.704a3.05 3.05 0 0 1-1.23.617c-1.41.468-2.464.761-3.169.88-6.218 1.408-11.438 4.868-15.664 10.38-4.223 5.513-6.336 11.497-6.336 17.947 0 1.173.53 1.644 1.584 1.409 6.454 0 15.078-2.932 25.87-8.798 4.344-2.463 10.912-6.861 19.712-13.196.822-.586 1.935-1.378 3.343-2.375s2.346-1.672 2.818-2.025a2.57 2.57 0 0 1 1.58-.526l5.986 2.99c1.29.703 1.466 1.643.529 2.816-.94 1.641-4.431 4.808-10.471 9.502-6.043 4.69-10.943 8.387-14.697 11.083-4.223 3.052-9.474 6.129-15.75 9.239-6.278 3.107-11.469 4.838-15.574 5.19-3.64 0-6.336-.527-8.095-1.584-2.113-1.173-5.28-3.05-9.504-5.631-5.28-3.518-7.744-8.444-7.39-14.78Z"/>
    <path d="m273.921 59.121-2.113-3.167c-2.113-4.105-2.406-8.212-.88-12.316.705-2.345 1.965-4.576 3.785-6.685 1.817-2.113 3.782-3.168 5.895-3.168.822 0 1.701.176 2.639.526 9.035 2.935 14.606 7.861 16.72 14.782.821 2.932 1.172 5.981 1.054 9.149v2.638c0 .94.411 1.29 1.233 1.058 4.577-.94 9.62-2.76 15.136-5.455 1.173-.469 1.992-.704 2.464-.704.819 0 1.584.35 2.285 1.054.236.236.765.5 1.584.792.822.293 1.29.499 1.409.617.94.704 1.055 1.701.353 2.992-.235.468-1.058 1.112-2.463 1.934-7.745 3.99-15.018 6.217-21.823 6.686-1.175 0-1.937.646-2.288 1.937-2.7 10.907-6.629 17.478-11.792 19.705-1.409.704-2.757 1.058-4.048 1.058-1.408 0-2.874-.411-4.398-1.233-6.103-2.932-9.271-8.151-9.504-15.659 0-6.102 1.348-11.203 4.048-15.308a1.902 1.902 0 0 0 .35-.616 1.896 1.896 0 0 1 .354-.617Zm18.83-4.222c0-.468-.058-1.173-.176-2.112a18.484 18.48 0 0 1-.175-2.11c-1.409-6.453-3.815-9.678-7.216-9.678-1.526 0-2.757.702-3.697 2.11-1.29 2.23-2.113 4.458-2.463 6.688-.587 4.809 1.348 8.387 5.807 10.733 1.29.468 3.11.937 5.456 1.408 1.055 0 1.702-.529 1.935-1.584.118-.586.235-1.496.353-2.729.118-1.23.176-2.14.176-2.726Zm-14.256 21.818c0 1.759.118 3.107.353 4.047.351 2.227.88 3.46 1.584 3.693h.351l.354.178c.819 0 1.699-.528 2.639-1.583.937-1.058 1.641-2.052 2.112-2.992a289.593 289.593 0 0 0 2.99-6.51c.94-2.113 1.351-3.696 1.234-4.751a78.396 78.38 0 0 0-3.873-1.76 73.866 73.852 0 0 1-1.847-.967 84.808 84.808 0 0 0-1.496-.791c-.469-.236-.822-.354-1.055-.354-.472 0-.883.471-1.233 1.408-1.173 2.346-1.878 5.806-2.113 10.382Z"/>
    <path d="m320.909 59.121-2.113-3.167c-2.11-4.105-2.404-8.212-.88-12.316.704-2.345 1.965-4.576 3.785-6.685 1.82-2.113 3.784-3.168 5.894-3.168.823 0 1.702.176 2.642.526 9.033 2.935 14.607 7.861 16.717 14.782.822 2.932 1.173 5.981 1.058 9.149v2.638c0 .94.408 1.29 1.23 1.058 4.577-.94 9.622-2.76 15.136-5.455 1.173-.469 1.995-.704 2.463-.704.823 0 1.584.35 2.289 1.054.233.236.762.5 1.584.792.819.293 1.29.499 1.405.617.94.704 1.058 1.701.354 2.992-.236.468-1.055 1.112-2.464 1.934-7.744 3.99-15.017 6.217-21.822 6.686-1.173 0-1.937.646-2.288 1.937-2.7 10.907-6.63 17.478-11.792 19.705-1.406.704-2.757 1.058-4.048 1.058-1.406 0-2.875-.411-4.398-1.233-6.1-2.932-9.269-8.151-9.504-15.659 0-6.102 1.348-11.203 4.047-15.308a1.896 1.896 0 0 0 .354-.616 1.853 1.852 0 0 1 .35-.617Zm18.83-4.222c0-.468-.058-1.173-.176-2.112a18.484 18.48 0 0 1-.175-2.11c-1.409-6.453-3.815-9.678-7.216-9.678-1.526 0-2.757.702-3.697 2.11-1.29 2.23-2.11 4.458-2.464 6.688-.586 4.809 1.351 8.387 5.807 10.733 1.291.468 3.11.937 5.457 1.408 1.057 0 1.701-.529 1.937-1.584.115-.586.233-1.496.351-2.729.118-1.23.175-2.14.175-2.726Zm-14.254 21.818c0 1.759.115 3.107.351 4.047.35 2.227.88 3.46 1.584 3.693h.35l.354.178c.822 0 1.702-.528 2.64-1.583.94-1.058 1.644-2.052 2.112-2.992a289.593 289.593 0 0 0 2.99-6.51c.94-2.113 1.351-3.696 1.233-4.751a76.097 76.082 0 0 0-3.872-1.76 73.866 73.852 0 0 1-1.847-.967 68.182 68.17 0 0 0-1.496-.791c-.469-.236-.822-.354-1.055-.354-.469 0-.88.471-1.234 1.408-1.173 2.346-1.877 5.806-2.11 10.382Z"/>
    <path d="M362.97 96.776c-.705-.94-1.056-2.288-1.056-4.047.118-1.173.175-2.874.175-5.104 0-.351-.057-.526-.175-.526-.236.468-.411.704-.529.704-.118-.118-.175-.236-.175-.354-.118-.468-.176-1.172-.176-2.11-.117-4.34.527-10.617 1.935-18.828 4.223-28.621 13.258-48.62 27.103-59.999 2.815-2.463 5.865-4.047 9.15-4.751a13.543 13.54 0 0 1 3.52-.529c1.994 0 3.696.529 5.105 1.584a22.324 22.324 0 0 0 2.99 1.408c3.285 1.641 5.516 4.398 6.689 8.27.937 3.284.762 7.507-.529 12.669-.586 2.931-2.288 6.978-5.103 12.14-2.817 5.162-5.398 9.267-7.744 12.316-.118.118-.587.88-1.409 2.288.354 0 1.584-.529 3.697-1.584a9.715 9.713 0 0 1 4.399-1.055c1.408 0 3.052.469 4.93 1.409.819.586 1.641 1.055 2.463 1.405 3.168 1.173 5.278 2.935 6.333 5.28a15.333 15.33 0 0 1 1.058 10.206c-1.877 6.45-6.804 12.08-14.784 16.89-1.524.821-2.522 1.525-2.99 2.112 1.523 1.877 3.05 2.816 4.574 2.816 2.699 0 5.691-1.526 8.977-4.575 6.218-5.982 13.55-14.018 21.998-24.106.118-.118.293-.323.526-.617.236-.293.411-.498.529-.613 2.23-2.581 3.754-3.872 4.576-3.872.351 0 .705.088 1.056.263.353.176.88.469 1.584.88.704.41 1.408.792 2.112 1.145 1.76.82 1.935 2.052.527 3.693l-4.223 4.751c-1.642 1.76-4.547 5.132-8.712 10.119-4.166 4.984-7.479 8.707-9.943 11.17a140.02 139.993 0 0 1-4.927 4.752c-1.29 1.172-2.582 2.055-3.872 2.64-2.228 1.291-4.341 1.935-6.336 1.935-1.642 0-3.401-.468-5.278-1.408a80.591 80.576 0 0 1-3.168-1.759 90.38 90.363 0 0 0-3.873-2.113c-.235-.232-.586-.35-1.055-.35-.47 0-.822.35-1.057 1.055-.233 1.057-.587 2.58-1.055 4.575s-.823 3.518-1.056 4.576c-1.172 4.455-3.343 8.798-6.51 13.02-1.292 1.408-2.993 2.11-5.106 2.11-2.228 0-4.81-1.113-7.742-3.343a620.342 620.222 0 0 0-10.384-6.335c-3.05-1.759-5.338-4.397-6.864-7.915-.351-.587-.412-1.351-.176-2.288Zm44.348-83.225c-.118-.822-.53-1.233-1.23-1.233-.118 0-.412.118-.883.35-4.927 3.64-8.095 10.5-9.501 20.588-.822 4.458-1.173 7.508-1.058 9.149 0 .353.178.529.529.529.236.235.469.175.704-.176l.88-.88c6.687-9.855 10.266-18.592 10.734-26.217 0-.118-.027-.411-.087-.88a10.299 10.297 0 0 1-.088-1.23Zm-44.349 83.225-.35-.704.175.175a1.343 1.343 0 0 0 .175.529Zm159.62-11.79c8.096 5.866 12.261 13.842 12.494 23.93.354 6.45 0 12.08-1.055 16.892-.937 3.987-2.581 7.39-4.927 10.204-.236.353-.644.94-1.234 1.761-.586.82-.994 1.406-1.23 1.76-2.7 3.635-5.867 5.455-9.504 5.455-1.641 0-3.108-.411-4.398-1.233-.822-.469-3.755-2.17-8.8-5.102a695.01 695.01 0 0 1-3.521-2.288c-5.396-2.699-9.707-6.365-12.935-10.998-3.226-4.633-4.84-9.823-4.84-15.57-.82-5.514-.937-11.673-.35-18.476 1.526-15.72 5.483-31.438 11.88-47.154 6.393-15.72 14.751-28.331 25.077-37.83 3.872-3.872 7.802-5.809 11.79-5.809 1.994.118 4.283.97 6.864 2.554 2.582 1.583 4.341 3.255 5.278 5.014 2.231 4.222 2.993 8.504 2.289 12.844-.587 4.34-2.404 9.472-5.454 15.396-3.053 5.924-6.16 10.82-9.328 14.692-5.281 6.099-10.795 10.088-16.544 11.965-1.406.35-2.11 1.115-2.11 2.288-.705 5.63-1.173 10.088-1.41 13.37-.235.94.119 1.409 1.056 1.409a1.962 1.962 0 0 0 .882-.176c.233-.235.644-.468 1.23-.704.587-.235 1.056-.468 1.41-.704l5.631-3.518a174.682 174.648 0 0 0 6.511-4.225c6.451-4.34 15.43-9.384 26.925-15.13.587-.353 1.116-.529 1.584-.529a2.192 2.192 0 0 1 1.584.705c.236.117.91.38 2.025.791 1.113.411 1.905.91 2.376 1.496.702.705.762 1.466.176 2.288-.587.937-1.527 1.76-2.817 2.463-9.855 4.458-21.47 11.319-34.845 20.585-.351.236-.937.762-1.76 1.584Zm14.782-68.621c0-2.581-.468-4.809-1.405-6.686-.354-.94-.823-1.408-1.41-1.408-.117 0-.528.118-1.232.35-3.168 1.527-6.07 4.752-8.712 9.678-2.64 4.93-4.604 9.738-5.895 14.429-.937 3.285-2.228 8.211-3.872 14.781-.115.469-.263 1.291-.439 2.464a29.57 29.564 0 0 1-.44 2.463c-.234.82-.119 1.348.353 1.584.468 0 .82-.118 1.055-.354 8.564-4.926 15.546-15.423 20.942-31.495a16.396 16.393 0 0 0 1.055-5.806ZM509.742 97.48a171.881 171.848 0 0 0 .704 8.445c.236 1.876.47 3.285.705 4.222l.526.529c.118 0 .236-.058.353-.176.118-.118.233-.175.351-.175l.178-.354c1.76-4.457 2.64-8.622 2.64-12.49-.236-3.755-1.291-6.747-3.169-8.977-.117-.35-.468-.526-1.055-.526h-.353a7.583 7.581 0 0 0-.704 1.055c-.118.94-.176 3.754-.176 8.447Z"/>
    <path d="m555.5 59.121-2.113-3.167c-2.113-4.105-2.407-8.212-.88-12.316.704-2.345 1.965-4.576 3.784-6.685 1.817-2.113 3.782-3.168 5.895-3.168.822 0 1.702.176 2.64.526 9.034 2.935 14.606 7.861 16.719 14.782.822 2.932 1.173 5.981 1.055 9.149v2.638c0 .94.41 1.29 1.233 1.058 4.577-.94 9.619-2.76 15.135-5.455 1.173-.469 1.993-.704 2.464-.704.82 0 1.584.35 2.286 1.054.235.236.764.5 1.584.792.822.293 1.29.499 1.408.617.94.704 1.058 1.701.354 2.992-.236.468-1.058 1.112-2.464 1.934-7.744 3.99-15.018 6.217-21.822 6.686-1.176 0-1.938.646-2.288 1.937-2.7 10.907-6.63 17.478-11.793 19.705-1.408.704-2.756 1.058-4.047 1.058-1.409 0-2.875-.411-4.399-1.233-6.103-2.932-9.27-8.151-9.503-15.659 0-6.102 1.348-11.203 4.047-15.308a1.902 1.902 0 0 0 .35-.616 1.896 1.896 0 0 1 .354-.617Zm18.83-4.222c0-.468-.058-1.173-.176-2.112a18.484 18.48 0 0 1-.176-2.11c-1.408-6.453-3.814-9.678-7.215-9.678-1.527 0-2.757.702-3.697 2.11-1.29 2.23-2.113 4.458-2.464 6.688-.586 4.809 1.348 8.387 5.807 10.733 1.29.468 3.11.937 5.456 1.408 1.055 0 1.702-.529 1.935-1.584.118-.586.236-1.496.354-2.729.118-1.23.175-2.14.175-2.726Zm-14.257 21.818c0 1.759.118 3.107.354 4.047.35 2.227.88 3.46 1.584 3.693h.35l.354.178c.82 0 1.7-.528 2.64-1.583.936-1.058 1.64-2.052 2.112-2.992a289.593 289.593 0 0 0 2.99-6.51c.94-2.113 1.35-3.696 1.233-4.751a78.396 78.38 0 0 0-3.872-1.76 73.866 73.852 0 0 1-1.847-.967 84.808 84.808 0 0 0-1.497-.791c-.468-.236-.822-.354-1.055-.354-.471 0-.882.471-1.233 1.408-1.173 2.346-1.877 5.806-2.113 10.382Z"/>
    <path d="M637.332 60c-.586.47-1.29 1.82-2.11 4.048-.354.94-1.028 2.992-2.025 6.159a495.325 495.23 0 0 1-2.376 7.39 85.321 85.305 0 0 0-1.76 5.718 84.811 84.795 0 0 1-1.759 5.718c-.822 2.581-2.23 5.192-4.226 7.83-1.992 2.64-4.163 3.96-6.511 3.96-.587 0-1.23-.176-1.935-.529a42.554 42.545 0 0 1-2.2-1.23 25.431 25.426 0 0 1-2.198-1.409 7.975 7.973 0 0 1-.97-.616 44.302 44.294 0 0 0-1.143-.792l-1.055-.704c-2.7-1.29-4.607-3.08-5.72-5.365-1.115-2.288-2.082-5.367-2.904-9.239-.705-5.512-.647-11.436.175-17.77 1.29-11.73 3.579-22.348 6.865-31.847 1.055-4.811 2.757-7.214 5.102-7.214 1.056 0 2.113.526 3.168 1.583 1.056 1.055 1.996 1.584 2.815 1.584.353 0 1.762.644 4.226 1.935 2.581 1.172 3.87 3.342 3.87 6.51 0 1.29-.294 5.044-.88 11.26-.116 1.409-.321 3.549-.614 6.423a142.246 142.218 0 0 1-.792 6.598h.35c.469 0 .94-.351 1.409-1.055l3.694-5.806a15.325 15.325 0 0 1 4.226-4.047c.937-.471 1.699-.704 2.285-.704.472 0 1.058.175 1.763.526h.175l.175.178c2.933 1.29 4.752 2.346 5.457 3.167.704.82 1.584 2.757 2.639 5.806 1.173 3.168 1.995 5.102 2.463 5.806 1.527 2.581 3.404 3.872 5.632 3.872 3.286 0 6.572-1.644 9.855-4.927.47-.586 1.233-1.408 2.288-2.463 1.055-1.057 1.82-1.877 2.288-2.463a1.666 1.666 0 0 1 1.409-.704c.468 0 .88.115 1.23.35.236.118.647.354 1.233.705.587.35.998.586 1.23.704 1.292.704 1.467 1.641.53 2.814-3.519 4.458-6.336 7.392-8.446 8.798-2.7 1.994-5.457 2.992-8.274 2.992-3.168 0-6.569-1.321-10.205-3.96-3.64-2.638-6.043-5.425-7.216-8.356-.235-.704-.647-1.115-1.233-1.233Zm125.655-33.078c-1.29 2.816-2.7 6.628-4.223 11.436a231.091 231.046 0 0 1-4.664 13.02c-1.702 4.343-3.872 9.21-6.511 14.607-2.64 5.395-5.575 10.058-8.8 13.987-3.226 3.93-6.481 6.48-9.767 7.653-1.058.47-2.288.704-3.697.704a8.386 8.384 0 0 1-4.752-1.406c-.586-.353-3.343-1.994-8.27-4.929-2.815-1.641-4.517-4.28-5.103-7.916-.469-3.753-.411-6.863.175-9.326 1.29-6.803 4.722-13.196 10.296-19.18 5.571-5.98 11.584-8.973 18.038-8.973 2.581 0 4.576.586 5.985 1.76.233.235.586.353 1.055.353.35 0 .704-.354 1.055-1.058.236-.35.529-.967.88-1.847.353-.88.646-1.553.88-2.022 4.34-10.088 6.804-15.661 7.39-16.716 1.878-4.34 4.695-8.74 8.45-13.196l2.638-2.64c1.291-.82 2.288-1.231 2.993-1.231.704 0 1.523.35 2.463 1.055a22.526 22.522 0 0 0 2.993 1.408c2.228.822 3.519 2.52 3.87 5.102a24.675 24.67 0 0 1 0 7.214 1099.762 1099.55 0 0 1-1.76 11.79c-5.514 32.021-8.27 54.955-8.27 68.797 0 8.68 2.052 16.949 6.16 24.81.586 1.054.35 2.17-.704 3.342-.587.587-1.173.88-1.76.88a2.184 2.184 0 0 1-1.233-.35c-3.286-1.645-5.571-3.99-6.862-7.04-3.99-9.62-5.692-19.823-5.105-30.616.704-14.546 2.757-32.785 6.16-54.721.236-2.113.236-3.696 0-4.751Zm-31.855 38.885c.236-.115.53-.469.883-1.055.35-.587 1.759-2.814 4.223-6.686a30.91 30.91 0 0 1 1.934-3.342v-.53c0-.235-.117-.35-.35-.35-1.645 0-3.11 1.348-4.402 4.047-1.29 2.696-2.052 5.041-2.288 7.036-.115.354-.115.647 0 .88Zm56.67-6.686-2.113-3.167c-2.113-4.105-2.406-8.212-.88-12.316.705-2.345 1.965-4.576 3.785-6.685 1.817-2.113 3.782-3.168 5.895-3.168.822 0 1.701.176 2.639.526 9.035 2.935 14.606 7.861 16.72 14.782.821 2.932 1.172 5.981 1.054 9.149v2.638c0 .94.411 1.29 1.233 1.058 4.574-.94 9.62-2.76 15.136-5.455 1.173-.469 1.992-.704 2.464-.704.819 0 1.584.35 2.285 1.054.236.236.765.5 1.584.792.822.293 1.29.499 1.409.617.94.704 1.055 1.701.353 2.992-.235.468-1.058 1.112-2.463 1.934-7.745 3.99-15.018 6.217-21.825 6.686-1.173 0-1.935.646-2.286 1.937-2.7 10.907-6.63 17.478-11.792 19.705-1.409.704-2.757 1.058-4.048 1.058-1.408 0-2.874-.411-4.398-1.233-6.103-2.932-9.271-8.151-9.504-15.659 0-6.102 1.348-11.203 4.048-15.308a1.902 1.902 0 0 0 .35-.616 1.896 1.896 0 0 1 .354-.617Zm18.83-4.222c0-.468-.058-1.173-.176-2.112a18.484 18.48 0 0 1-.175-2.11c-1.409-6.453-3.815-9.678-7.216-9.678-1.526 0-2.757.702-3.697 2.11-1.29 2.23-2.113 4.458-2.463 6.688-.587 4.809 1.348 8.387 5.807 10.733 1.29.468 3.11.937 5.456 1.408 1.055 0 1.702-.529 1.935-1.584.117-.586.235-1.496.353-2.729.118-1.23.176-2.14.176-2.726Zm-14.256 21.818c0 1.759.118 3.107.353 4.047.351 2.227.88 3.46 1.584 3.693h.351l.354.178c.819 0 1.699-.528 2.639-1.583.937-1.058 1.641-2.052 2.11-2.992a278.207 278.207 0 0 0 2.992-6.51c.94-2.113 1.351-3.696 1.233-4.751a78.396 78.38 0 0 0-3.872-1.76 73.866 73.852 0 0 1-1.847-.967 84.808 84.808 0 0 0-1.496-.791c-.469-.236-.822-.354-1.058-.354-.469 0-.88.471-1.23 1.408-1.173 2.346-1.878 5.806-2.113 10.382Z"/>
    <path d="m863.299 53.14.175.175c1.409-1.172 5.045-3.578 10.912-7.214 2.464-1.641 6.276-4.104 11.44-7.39a36.963 36.956 0 0 1 5.984-3.167c.937-.235 1.642-.353 2.11-.353.822 0 1.584.178 2.289.529.586.35 1.553.88 2.905 1.583 1.348.704 2.375 1.233 3.077 1.584 2.349 1.173 3.461 3.167 3.346 5.981-.704 7.275-1.176 12.73-1.408 16.366-.236 2.227-.294 3.575-.176 4.047h.35c.587 0 1.35-.354 2.29-1.058.35-.233 1.876-1.112 4.576-2.639a594.335 594.335 0 0 0 6.158-3.518c.468-.353 1.203-.764 2.2-1.233.998-.468 1.614-.761 1.847-.88.822-.35 1.584-.528 2.288-.528 1.527 0 3.462.94 5.807 2.817.823.35.998 1.115.53 2.288-.587.937-1.467 1.64-2.64 2.11-6.103 2.462-14.255 7.156-24.464 14.077-1.29.937-2.228 2.288-2.814 4.047-7.158 31.084-18.243 49.03-33.261 53.842a11.282 11.28 0 0 1-3.872.704c-2.932 0-6.218-1.583-9.855-4.75-1.408-1.058-2.113-2.817-2.113-5.28-.118-1.877.351-4.105 1.409-6.686 4.34-10.793 16.248-24.517 35.724-41.173 1.642-1.526 2.64-3.167 2.993-4.926 0-.471.704-4.927 2.11-13.374.236-1.641.236-2.874 0-3.696a1.335 1.334 0 0 1-.526-.175c-.471 0-.94.235-1.409.704-12.203 11.025-22.175 18.826-29.917 23.402-4.695 2.58-8.331 3.871-10.913 3.871-1.523 0-3.225-.468-5.102-1.408-.823-.469-1.995-1.203-3.52-2.2-1.526-.995-2.523-1.611-2.992-1.847a5.042 5.041 0 0 0-1.233-.792l-1.23-.616c-.236-.233-.735-.557-1.497-.968a22.318 22.314 0 0 1-1.671-.967c-3.637-2.58-4.81-6.099-3.519-10.557 1.524-5.512 4.897-10.937 10.118-16.275 5.22-5.337 10.646-9.414 16.278-12.228 2.581-1.29 4.752-1.995 6.511-2.113.472-.117 1.173-.175 2.113-.175 2.228 0 4.166.586 5.807 1.76.587.468 1.496.996 2.73 1.583 1.23.586 1.965.937 2.198 1.055.822.468 1.408.997 1.759 1.583.471 1.058.529 1.877.178 2.463-1.526 1.877-2.757 2.935-3.697 3.168-2.814.94-5.982 3.05-9.504 6.335-.82.586-1.055 1.348-.704 2.287l-.175-.175ZM886 91.145h-.35a4.001 4 0 0 0-1.055.705c-5.281 4.808-10.59 10.496-15.928 17.067-5.338 6.567-8.3 12.08-8.887 16.538-.354 1.408 0 2.112 1.055 2.112a1.943 1.943 0 0 0 .88-.175c3.99-1.29 6.864-2.992 8.624-5.105 6.336-5.63 11.614-15.776 15.84-30.437l-.179-.354v-.35Z"/>
    <path d="M942.846 74.078c-.705 0-1.173.058-1.409.176-.469.118-1.173.175-2.113.175-2.228 0-4.574-.762-7.037-2.288a27.358 27.353 0 0 0-2.376-1.496 26.418 26.413 0 0 1-2.376-1.493c-5.75-3.52-7.745-8.565-5.985-15.132 1.644-5.867 4.812-11.35 9.503-16.454a75.42 75.405 0 0 1 15.84-13.107l1.584-.792c.82-.411 1.466-.674 1.935-.792.94-.233 1.644-.35 2.113-.35 1.408 0 2.639.525 3.694 1.583 1.176 1.172 2.113 1.759 2.817 1.759s1.379.145 2.023.438c.646.293 1.32.704 2.025 1.233s1.23.85 1.584.967c.704.236 1.408.94 2.113 2.113.701 1.29.586 2.638-.354 4.047-1.29 1.877-3.579 4.34-6.862 7.39-1.408 1.408-5.338 5.63-11.792 12.669-1.526 1.64-3.226 4.222-5.103 7.74-.471.704-.734 1.26-.792 1.671-.06.411.088.704.439.88.353.178.94.383 1.76.616 1.172.354 2.934.998 5.28 1.937 4.692 2.346 7.92 4.516 9.68 6.51.468.469.936.702 1.408.702a1.688 1.688 0 0 0 1.23-.526c4.577-3.168 11.675-7.568 21.296-13.198a18.279 18.275 0 0 1 1.76-.968l1.934-.967c1.173-.822 2.289-1.23 3.344-1.23 1.408 0 3.11.762 5.105 2.285.937.704.88 1.408-.178 2.113-.115 0-.293.117-.526.35-.236.236-.411.354-.529.354-5.045 1.055-14.431 6.392-28.158 16.012-1.76 1.055-2.464 2.52-2.11 4.397 1.641 7.626.468 15.015-3.522 22.172-1.641 2.932-4.047 5.482-7.215 7.652s-6.336 3.255-9.504 3.255c-2.815 0-5.572-1.465-8.27-4.397-1.174-1.29-1.467-3.05-.88-5.28 1.644-7.039 6.217-14.193 13.726-21.464.354-.354.91-.883 1.672-1.584a61.145 61.145 0 0 0 1.672-1.584c.118-.118.353-.323.704-.616a11.2 11.2 0 0 1 .792-.617 1.809 1.808 0 0 0 .529-.704c.175-.35.145-.644-.088-.88-.704-2.227-1.82-3.578-3.343-4.046-.704-.233-3.053-.644-7.04-1.23Zm12.847 14.955a1.178 1.178 0 0 0-.53-1.055c-.117-.118-.292-.175-.528-.175-.233 0-.526.175-.88.526-5.278 4.926-9.032 9.97-11.263 15.132-.35.587-.937 2.346-1.76 5.28-.35 1.173 0 1.76 1.059 1.76h.175l.35-.176c8.918-2.699 13.377-9.795 13.377-21.292Z"/>
  </g>
</svg>
