<?xml version="1.0" encoding="UTF-8" standalone="no"?>
<!DOCTYPE svg PUBLIC "-//W3C//DTD SVG 1.1//EN" "http://www.w3.org/Graphics/SVG/1.1/DTD/svg11.dtd">
<svg width="100%" height="100%" viewBox="0 0 996 145" version="1.1" xmlns="http://www.w3.org/2000/svg" xmlns:xlink="http://www.w3.org/1999/xlink" xml:space="preserve" xmlns:serif="http://www.serif.com/" style="fill-rule:evenodd;clip-rule:evenodd;stroke-linejoin:round;stroke-miterlimit:2;">
    <g transform="matrix(1,0,0,1,-637.942,-1837.58)">
        <g transform="matrix(2.74045,0,0,2.73992,396.831,631.661)">
            <path d="M99.362,468.539C99.635,468.374 100.073,467.936 100.675,467.225C101.059,466.677 101.634,465.911 102.4,464.925C103.166,463.94 103.741,463.173 104.125,462.626C105.493,460.984 106.314,460.026 106.588,459.752C107.409,458.931 108.066,458.52 108.559,458.52C108.778,458.52 109.024,458.602 109.298,458.766C109.681,458.931 110.256,459.232 111.023,459.67C111.625,459.889 111.981,460.409 112.09,461.23C112.09,461.942 111.981,463.119 111.762,464.761C111.707,465.418 111.597,466.39 111.433,467.676C111.269,468.963 111.132,469.935 111.023,470.592C110.858,471.905 110.886,473.876 111.105,476.504C111.324,476.887 111.46,477.079 111.515,477.079C111.734,477.079 111.898,476.915 112.008,476.586C113.377,474.068 114.636,470.537 115.785,465.993C116.442,463.365 119.317,461.914 124.408,461.641C126.379,461.641 127.83,461.531 128.76,461.312C128.87,461.257 129.007,461.23 129.171,461.23C129.226,461.23 129.828,461.476 130.977,461.969C131.908,462.407 131.936,463.009 131.06,463.776C131.005,463.83 130.704,463.94 130.156,464.104C129.554,464.268 128.706,464.35 127.611,464.35C124.873,464.35 122.629,464.569 120.877,465.007C119.782,465.281 119.07,465.965 118.742,467.06C118.687,467.334 118.564,467.813 118.372,468.497C118.181,469.182 118.03,469.716 117.921,470.099C116.88,473.548 116.196,475.656 115.868,476.422C115.484,477.517 114.923,478.639 114.184,479.789C113.445,480.939 112.692,481.513 111.926,481.513C110.94,481.513 110.037,481.034 109.216,480.076C108.395,479.118 107.875,478.119 107.656,477.079C107.327,475.382 107.163,473.219 107.163,470.592C107.163,470.427 107.081,470.345 106.917,470.345C106.807,470.345 106.698,470.4 106.588,470.509C106.533,470.564 106.41,470.756 106.219,471.084C106.027,471.413 105.876,471.686 105.767,471.905C102.427,477.873 99.362,480.856 96.57,480.856C96.022,480.856 95.502,480.692 95.009,480.364C94.133,479.926 93.504,479.57 93.121,479.296C92.464,478.803 91.807,478.393 91.15,478.064C89.234,477.079 88.193,475.491 88.029,473.301C87.646,466.732 89.617,460.765 93.942,455.399C94.434,454.797 94.927,454.359 95.42,454.086C95.858,453.757 96.296,453.593 96.734,453.593C97.172,453.593 97.61,453.812 98.048,454.25C98.431,454.633 99.06,454.989 99.936,455.317C101.579,455.92 102.564,456.604 102.893,457.37C103.057,457.808 103.03,458.246 102.811,458.684C102.592,459.013 102.291,459.56 101.907,460.327C101.524,461.093 101.25,461.641 101.086,461.969C100.101,463.776 99.444,465.719 99.115,467.799C99.115,468.183 99.197,468.429 99.362,468.539Z" style="fill:white;fill-rule:nonzero;"/>
            <path d="M132.195,463.313C132.195,463.355 132.163,463.441 132.099,463.569C132.035,463.698 132.003,463.783 132.003,463.826C132.003,464.126 132.046,464.533 132.131,465.046C132.645,467.315 133.886,468.45 135.856,468.45C136.584,468.45 137.247,468.343 137.847,468.129C138.831,467.872 139.902,467.273 141.057,466.331C142.299,465.475 143.498,464.426 144.654,463.184L146.837,461.001C147.137,460.744 147.394,460.615 147.608,460.615C147.779,460.615 148.014,460.701 148.314,460.872L149.855,461.643C150.326,461.985 150.412,462.413 150.112,462.927C148.828,464.768 146.923,466.663 144.397,468.611C141.871,470.558 139.666,471.532 137.782,471.532C136.37,471.532 134.775,471.019 132.998,469.991C131.221,468.964 130.012,467.829 129.37,466.588C128.428,464.704 128.16,462.713 128.567,460.615C128.974,458.518 129.948,456.784 131.489,455.414C131.575,455.328 131.724,455.221 131.939,455.093C132.153,454.964 132.302,454.857 132.388,454.772C132.987,454.429 133.587,454.258 134.186,454.258C134.657,454.258 135.085,454.343 135.471,454.515C135.899,454.686 136.498,454.986 137.269,455.414C138.039,455.927 138.564,456.612 138.842,457.469C139.12,458.325 139.067,459.181 138.681,460.037C138.253,461.065 137.6,461.91 136.723,462.574C135.845,463.238 134.871,463.569 133.801,463.569C133.201,463.569 132.666,463.484 132.195,463.313ZM136.048,457.79C136.048,457.619 136.027,457.49 135.984,457.404C135.899,457.062 135.706,456.891 135.406,456.891C135.278,456.891 135.171,456.912 135.085,456.955C134.529,457.083 133.961,457.522 133.383,458.271C132.805,459.021 132.431,459.716 132.26,460.358C132.088,460.787 132.088,461.086 132.26,461.258C132.345,461.343 132.474,461.386 132.645,461.386C132.859,461.386 133.009,461.365 133.094,461.322L133.672,461.129C134.4,460.829 134.989,460.369 135.438,459.748C135.888,459.128 136.091,458.475 136.048,457.79Z" style="fill:white;fill-rule:nonzero;"/>
            <path d="M160.516,467.872C160.516,467.273 160.58,466.652 160.708,466.01C161.736,462.927 163.277,460.401 165.332,458.432C167.387,456.463 169.913,455.478 172.91,455.478C173.937,455.478 174.858,455.735 175.671,456.249C176.228,456.548 176.784,456.826 177.341,457.083C177.769,457.297 178.047,457.576 178.176,457.918C178.304,458.132 178.325,458.282 178.24,458.368C178.197,458.411 178.122,458.539 178.015,458.753C177.908,458.967 177.822,459.106 177.758,459.17C177.694,459.235 177.598,459.32 177.469,459.427C177.341,459.534 177.191,459.609 177.02,459.652C176.506,459.823 176.121,459.93 175.864,459.973C173.595,460.487 171.69,461.75 170.148,463.762C168.607,465.774 167.836,467.958 167.836,470.312C167.836,470.74 168.029,470.912 168.414,470.826C170.769,470.826 173.916,469.756 177.854,467.615C179.439,466.716 181.836,465.111 185.047,462.799C185.347,462.585 185.753,462.296 186.267,461.932C186.781,461.568 187.123,461.322 187.295,461.193C187.466,461.065 187.658,461.001 187.872,461.001L190.056,462.092C190.527,462.349 190.591,462.692 190.249,463.12C189.906,463.719 188.632,464.875 186.428,466.588C184.223,468.3 182.435,469.649 181.065,470.633C179.524,471.747 177.608,472.87 175.318,474.005C173.027,475.139 171.133,475.771 169.635,475.899C168.307,475.899 167.323,475.707 166.681,475.321C165.91,474.893 164.754,474.208 163.213,473.266C161.286,471.982 160.387,470.184 160.516,467.872Z" style="fill:white;fill-rule:nonzero;"/>
            <path d="M187.937,461.707L187.166,460.551C186.395,459.053 186.288,457.554 186.845,456.056C187.102,455.2 187.562,454.386 188.226,453.616C188.889,452.845 189.606,452.46 190.377,452.46C190.677,452.46 190.998,452.524 191.34,452.652C194.637,453.723 196.67,455.521 197.441,458.047C197.741,459.117 197.869,460.23 197.826,461.386L197.826,462.349C197.826,462.692 197.976,462.82 198.276,462.735C199.946,462.392 201.786,461.728 203.799,460.744C204.227,460.573 204.526,460.487 204.698,460.487C204.997,460.487 205.276,460.615 205.532,460.872C205.618,460.958 205.811,461.054 206.11,461.161C206.41,461.268 206.581,461.343 206.624,461.386C206.967,461.643 207.009,462.007 206.753,462.478C206.667,462.649 206.367,462.884 205.854,463.184C203.028,464.64 200.374,465.453 197.891,465.624C197.462,465.624 197.184,465.86 197.056,466.331C196.071,470.312 194.637,472.71 192.753,473.523C192.239,473.78 191.747,473.909 191.276,473.909C190.762,473.909 190.227,473.759 189.671,473.459C187.444,472.389 186.288,470.484 186.203,467.744C186.203,465.517 186.695,463.655 187.68,462.157C187.723,462.114 187.765,462.039 187.808,461.932C187.851,461.825 187.894,461.75 187.937,461.707ZM194.808,460.166C194.808,459.995 194.787,459.738 194.744,459.395C194.701,459.053 194.68,458.796 194.68,458.625C194.166,456.27 193.288,455.093 192.047,455.093C191.49,455.093 191.041,455.349 190.698,455.863C190.227,456.677 189.927,457.49 189.799,458.304C189.585,460.059 190.291,461.365 191.918,462.221C192.389,462.392 193.053,462.563 193.909,462.735C194.294,462.735 194.53,462.542 194.615,462.157C194.658,461.943 194.701,461.611 194.744,461.161C194.787,460.712 194.808,460.38 194.808,460.166ZM189.606,468.129C189.606,468.771 189.649,469.263 189.735,469.606C189.863,470.419 190.056,470.869 190.313,470.954L190.441,470.954L190.57,471.019C190.869,471.019 191.19,470.826 191.533,470.441C191.875,470.055 192.132,469.692 192.304,469.349C192.689,468.536 193.053,467.744 193.395,466.973C193.738,466.202 193.888,465.624 193.845,465.239C193.502,465.068 193.031,464.854 192.432,464.597C192.261,464.511 192.036,464.394 191.758,464.244C191.479,464.094 191.297,463.998 191.212,463.955C191.041,463.869 190.912,463.826 190.827,463.826C190.655,463.826 190.505,463.998 190.377,464.34C189.949,465.196 189.692,466.459 189.606,468.129Z" style="fill:white;fill-rule:nonzero;"/>
            <path d="M205.083,461.707L204.312,460.551C203.542,459.053 203.435,457.554 203.991,456.056C204.248,455.2 204.708,454.386 205.372,453.616C206.036,452.845 206.753,452.46 207.523,452.46C207.823,452.46 208.144,452.524 208.487,452.652C211.783,453.723 213.817,455.521 214.587,458.047C214.887,459.117 215.015,460.23 214.973,461.386L214.973,462.349C214.973,462.692 215.122,462.82 215.422,462.735C217.092,462.392 218.933,461.728 220.945,460.744C221.373,460.573 221.673,460.487 221.844,460.487C222.144,460.487 222.422,460.615 222.679,460.872C222.764,460.958 222.957,461.054 223.257,461.161C223.556,461.268 223.728,461.343 223.77,461.386C224.113,461.643 224.156,462.007 223.899,462.478C223.813,462.649 223.514,462.884 223,463.184C220.174,464.64 217.52,465.453 215.037,465.624C214.609,465.624 214.33,465.86 214.202,466.331C213.217,470.312 211.783,472.71 209.899,473.523C209.386,473.78 208.893,473.909 208.422,473.909C207.909,473.909 207.373,473.759 206.817,473.459C204.591,472.389 203.435,470.484 203.349,467.744C203.349,465.517 203.841,463.655 204.826,462.157C204.869,462.114 204.912,462.039 204.955,461.932C204.997,461.825 205.04,461.75 205.083,461.707ZM211.954,460.166C211.954,459.995 211.933,459.738 211.89,459.395C211.847,459.053 211.826,458.796 211.826,458.625C211.312,456.27 210.434,455.093 209.193,455.093C208.636,455.093 208.187,455.349 207.844,455.863C207.373,456.677 207.074,457.49 206.945,458.304C206.731,460.059 207.438,461.365 209.064,462.221C209.535,462.392 210.199,462.563 211.055,462.735C211.441,462.735 211.676,462.542 211.762,462.157C211.804,461.943 211.847,461.611 211.89,461.161C211.933,460.712 211.954,460.38 211.954,460.166ZM206.753,468.129C206.753,468.771 206.795,469.263 206.881,469.606C207.009,470.419 207.202,470.869 207.459,470.954L207.587,470.954L207.716,471.019C208.016,471.019 208.337,470.826 208.679,470.441C209.022,470.055 209.279,469.692 209.45,469.349C209.835,468.536 210.199,467.744 210.541,466.973C210.884,466.202 211.034,465.624 210.991,465.239C210.649,465.068 210.178,464.854 209.578,464.597C209.407,464.511 209.182,464.394 208.904,464.244C208.626,464.094 208.444,463.998 208.358,463.955C208.187,463.869 208.058,463.826 207.973,463.826C207.802,463.826 207.652,463.998 207.523,464.34C207.095,465.196 206.838,466.459 206.753,468.129Z" style="fill:white;fill-rule:nonzero;"/>
            <path d="M220.431,475.45C220.174,475.107 220.046,474.615 220.046,473.973C220.089,473.545 220.11,472.924 220.11,472.11C220.11,471.982 220.089,471.918 220.046,471.918C219.96,472.089 219.896,472.175 219.853,472.175C219.81,472.132 219.789,472.089 219.789,472.046C219.746,471.875 219.725,471.618 219.725,471.276C219.682,469.692 219.917,467.401 220.431,464.404C221.972,453.958 225.269,446.659 230.321,442.506C231.348,441.607 232.461,441.029 233.66,440.772C234.131,440.644 234.559,440.579 234.944,440.579C235.672,440.579 236.293,440.772 236.807,441.157C237.192,441.371 237.556,441.543 237.898,441.671C239.097,442.27 239.911,443.276 240.339,444.689C240.681,445.888 240.617,447.429 240.146,449.313C239.932,450.383 239.311,451.86 238.284,453.744C237.256,455.628 236.314,457.126 235.458,458.239C235.415,458.282 235.244,458.56 234.944,459.074C235.073,459.074 235.522,458.881 236.293,458.496C236.807,458.239 237.342,458.111 237.898,458.111C238.412,458.111 239.012,458.282 239.697,458.625C239.996,458.839 240.296,459.01 240.596,459.138C241.752,459.566 242.522,460.209 242.907,461.065C243.464,462.264 243.592,463.505 243.293,464.79C242.608,467.144 240.81,469.199 237.898,470.954C237.342,471.254 236.978,471.511 236.807,471.725C237.363,472.41 237.92,472.753 238.476,472.753C239.461,472.753 240.553,472.196 241.752,471.083C244.021,468.9 246.696,465.967 249.779,462.285C249.822,462.242 249.886,462.167 249.971,462.06C250.057,461.953 250.121,461.878 250.164,461.836C250.978,460.894 251.534,460.423 251.834,460.423C251.962,460.423 252.091,460.455 252.219,460.519C252.348,460.583 252.54,460.69 252.797,460.84C253.054,460.99 253.311,461.129 253.568,461.258C254.21,461.557 254.274,462.007 253.76,462.606L252.219,464.34C251.62,464.982 250.56,466.213 249.04,468.033C247.52,469.852 246.311,471.211 245.412,472.11C244.641,472.881 244.042,473.459 243.614,473.844C243.143,474.272 242.672,474.594 242.201,474.808C241.388,475.279 240.617,475.514 239.889,475.514C239.29,475.514 238.648,475.343 237.963,475C237.791,474.915 237.406,474.701 236.807,474.358C236.207,474.016 235.736,473.759 235.394,473.587C235.308,473.502 235.18,473.459 235.009,473.459C234.837,473.459 234.709,473.587 234.623,473.844C234.538,474.23 234.409,474.786 234.238,475.514C234.067,476.242 233.938,476.798 233.853,477.184C233.425,478.81 232.633,480.395 231.477,481.936C231.006,482.45 230.385,482.706 229.614,482.706C228.801,482.706 227.859,482.3 226.789,481.486C225.975,480.973 224.712,480.202 223,479.174C221.887,478.532 221.052,477.569 220.495,476.285C220.367,476.071 220.345,475.792 220.431,475.45ZM236.614,445.075C236.571,444.775 236.421,444.625 236.165,444.625C236.122,444.625 236.015,444.668 235.843,444.753C234.045,446.081 232.889,448.585 232.376,452.267C232.076,453.894 231.948,455.007 231.99,455.606C231.99,455.735 232.055,455.799 232.183,455.799C232.269,455.885 232.354,455.863 232.44,455.735L232.761,455.414C235.201,451.817 236.507,448.628 236.678,445.845C236.678,445.802 236.668,445.695 236.646,445.524C236.625,445.353 236.614,445.203 236.614,445.075ZM220.431,475.45L220.303,475.193L220.367,475.257C220.367,475.3 220.388,475.364 220.431,475.45Z" style="fill:white;fill-rule:nonzero;"/>
            <path d="M278.677,471.147C281.631,473.288 283.151,476.199 283.236,479.881C283.365,482.235 283.236,484.29 282.851,486.046C282.509,487.501 281.909,488.743 281.053,489.77C280.967,489.899 280.818,490.113 280.603,490.413C280.389,490.712 280.24,490.926 280.154,491.055C279.169,492.382 278.013,493.046 276.686,493.046C276.087,493.046 275.552,492.896 275.081,492.596C274.781,492.425 273.711,491.804 271.87,490.734C271.142,490.263 270.714,489.984 270.585,489.899C268.616,488.914 267.043,487.576 265.865,485.885C264.688,484.194 264.099,482.3 264.099,480.202C263.8,478.19 263.757,475.942 263.971,473.459C264.528,467.722 265.972,461.985 268.306,456.249C270.639,450.512 273.689,445.909 277.457,442.442C278.87,441.029 280.304,440.322 281.759,440.322C282.487,440.365 283.322,440.676 284.264,441.254C285.206,441.832 285.848,442.442 286.19,443.084C287.004,444.625 287.282,446.188 287.025,447.772C286.811,449.356 286.148,451.229 285.035,453.391C283.921,455.553 282.787,457.34 281.631,458.753C279.704,460.979 277.692,462.435 275.594,463.12C275.081,463.248 274.824,463.527 274.824,463.955C274.567,466.01 274.396,467.637 274.31,468.835C274.224,469.178 274.353,469.349 274.695,469.349C274.824,469.349 274.931,469.328 275.017,469.285C275.102,469.199 275.252,469.114 275.466,469.028C275.68,468.942 275.851,468.857 275.98,468.771C276.322,468.557 277.007,468.129 278.035,467.487C279.062,466.845 279.854,466.331 280.411,465.945C282.765,464.361 286.041,462.52 290.236,460.423C290.45,460.294 290.643,460.23 290.814,460.23C291.028,460.23 291.221,460.316 291.392,460.487C291.478,460.53 291.724,460.626 292.131,460.776C292.537,460.926 292.826,461.108 292.998,461.322C293.254,461.579 293.276,461.857 293.062,462.157C292.848,462.499 292.505,462.799 292.034,463.056C288.438,464.683 284.2,467.187 279.319,470.569C279.191,470.655 278.977,470.847 278.677,471.147ZM284.071,446.102C284.071,445.16 283.9,444.347 283.558,443.662C283.429,443.319 283.258,443.148 283.044,443.148C283.001,443.148 282.851,443.191 282.594,443.276C281.438,443.833 280.379,445.01 279.415,446.808C278.452,448.607 277.735,450.362 277.264,452.074C276.922,453.273 276.451,455.071 275.851,457.469C275.809,457.64 275.755,457.94 275.691,458.368C275.627,458.796 275.573,459.096 275.53,459.267C275.445,459.566 275.487,459.759 275.659,459.845C275.83,459.845 275.958,459.802 276.044,459.716C279.169,457.918 281.717,454.087 283.686,448.221C283.943,447.536 284.071,446.83 284.071,446.102ZM273.989,475.707C274.075,477.034 274.16,478.061 274.246,478.789C274.332,479.474 274.417,479.988 274.503,480.33L274.695,480.523C274.738,480.523 274.781,480.502 274.824,480.459C274.867,480.416 274.909,480.395 274.952,480.395L275.017,480.266C275.659,478.639 275.98,477.119 275.98,475.707C275.894,474.337 275.509,473.245 274.824,472.431C274.781,472.303 274.653,472.239 274.439,472.239L274.31,472.239C274.267,472.282 274.182,472.41 274.053,472.624C274.01,472.967 273.989,473.994 273.989,475.707Z" style="fill:white;fill-rule:nonzero;"/>
            <path d="M290.686,461.707L289.915,460.551C289.144,459.053 289.037,457.554 289.594,456.056C289.851,455.2 290.311,454.386 290.975,453.616C291.638,452.845 292.355,452.46 293.126,452.46C293.426,452.46 293.747,452.524 294.089,452.652C297.386,453.723 299.419,455.521 300.19,458.047C300.49,459.117 300.618,460.23 300.575,461.386L300.575,462.349C300.575,462.692 300.725,462.82 301.025,462.735C302.695,462.392 304.535,461.728 306.548,460.744C306.976,460.573 307.275,460.487 307.447,460.487C307.746,460.487 308.025,460.615 308.281,460.872C308.367,460.958 308.56,461.054 308.859,461.161C309.159,461.268 309.33,461.343 309.373,461.386C309.716,461.643 309.759,462.007 309.502,462.478C309.416,462.649 309.116,462.884 308.603,463.184C305.777,464.64 303.123,465.453 300.64,465.624C300.211,465.624 299.933,465.86 299.805,466.331C298.82,470.312 297.386,472.71 295.502,473.523C294.988,473.78 294.496,473.909 294.025,473.909C293.511,473.909 292.976,473.759 292.42,473.459C290.193,472.389 289.037,470.484 288.952,467.744C288.952,465.517 289.444,463.655 290.429,462.157C290.472,462.114 290.514,462.039 290.557,461.932C290.6,461.825 290.643,461.75 290.686,461.707ZM297.557,460.166C297.557,459.995 297.536,459.738 297.493,459.395C297.45,459.053 297.429,458.796 297.429,458.625C296.915,456.27 296.037,455.093 294.796,455.093C294.239,455.093 293.79,455.349 293.447,455.863C292.976,456.677 292.676,457.49 292.548,458.304C292.334,460.059 293.04,461.365 294.667,462.221C295.138,462.392 295.802,462.563 296.658,462.735C297.043,462.735 297.279,462.542 297.364,462.157C297.407,461.943 297.45,461.611 297.493,461.161C297.536,460.712 297.557,460.38 297.557,460.166ZM292.355,468.129C292.355,468.771 292.398,469.263 292.484,469.606C292.612,470.419 292.805,470.869 293.062,470.954L293.19,470.954L293.319,471.019C293.618,471.019 293.939,470.826 294.282,470.441C294.624,470.055 294.881,469.692 295.053,469.349C295.438,468.536 295.802,467.744 296.144,466.973C296.487,466.202 296.637,465.624 296.594,465.239C296.251,465.068 295.78,464.854 295.181,464.597C295.01,464.511 294.785,464.394 294.507,464.244C294.228,464.094 294.046,463.998 293.961,463.955C293.79,463.869 293.661,463.826 293.576,463.826C293.404,463.826 293.254,463.998 293.126,464.34C292.698,465.196 292.441,466.459 292.355,468.129Z" style="fill:white;fill-rule:nonzero;"/>
            <path d="M320.547,462.028C320.333,462.199 320.076,462.692 319.777,463.505C319.648,463.848 319.402,464.597 319.038,465.753C318.674,466.909 318.385,467.808 318.171,468.45C318,468.921 317.786,469.617 317.529,470.537C317.272,471.458 317.058,472.153 316.887,472.624C316.587,473.566 316.073,474.519 315.345,475.482C314.618,476.445 313.826,476.927 312.969,476.927C312.755,476.927 312.52,476.863 312.263,476.734C312.092,476.648 311.824,476.499 311.46,476.285C311.096,476.071 310.829,475.899 310.658,475.771C310.572,475.728 310.454,475.653 310.304,475.546C310.155,475.439 310.015,475.343 309.887,475.257C309.759,475.171 309.63,475.086 309.502,475C308.517,474.529 307.821,473.876 307.415,473.042C307.008,472.207 306.655,471.083 306.355,469.67C306.098,467.658 306.119,465.496 306.419,463.184C306.89,458.903 307.725,455.028 308.924,451.561C309.309,449.805 309.93,448.928 310.786,448.928C311.171,448.928 311.557,449.12 311.942,449.506C312.327,449.891 312.67,450.084 312.969,450.084C313.098,450.084 313.612,450.319 314.511,450.79C315.453,451.218 315.923,452.01 315.923,453.166C315.923,453.637 315.816,455.007 315.602,457.276C315.56,457.79 315.485,458.571 315.378,459.62C315.271,460.669 315.174,461.472 315.089,462.028L315.217,462.028C315.388,462.028 315.56,461.9 315.731,461.643L317.079,459.524C317.507,458.924 318.021,458.432 318.621,458.047C318.963,457.875 319.241,457.79 319.455,457.79C319.627,457.79 319.841,457.854 320.098,457.982L320.162,457.982L320.226,458.047C321.296,458.518 321.96,458.903 322.217,459.203C322.474,459.502 322.795,460.209 323.18,461.322C323.608,462.478 323.908,463.184 324.079,463.441C324.636,464.383 325.321,464.854 326.134,464.854C327.333,464.854 328.532,464.254 329.73,463.056C329.902,462.842 330.18,462.542 330.565,462.157C330.95,461.771 331.229,461.472 331.4,461.258C331.528,461.086 331.7,461.001 331.914,461.001C332.085,461.001 332.235,461.043 332.363,461.129C332.449,461.172 332.599,461.258 332.813,461.386C333.027,461.514 333.177,461.6 333.262,461.643C333.733,461.9 333.797,462.242 333.455,462.67C332.171,464.297 331.143,465.368 330.373,465.881C329.388,466.609 328.382,466.973 327.354,466.973C326.198,466.973 324.957,466.491 323.63,465.528C322.302,464.565 321.425,463.548 320.997,462.478C320.911,462.221 320.761,462.071 320.547,462.028Z" style="fill:white;fill-rule:nonzero;"/>
            <path d="M366.399,449.955C365.928,450.983 365.414,452.374 364.858,454.129C364.344,455.713 363.777,457.297 363.156,458.881C362.535,460.466 361.743,462.242 360.78,464.212C359.817,466.181 358.746,467.883 357.569,469.317C356.392,470.751 355.204,471.682 354.005,472.11C353.619,472.282 353.17,472.367 352.656,472.367C352.014,472.367 351.436,472.196 350.922,471.854C350.708,471.725 349.702,471.126 347.904,470.055C346.877,469.456 346.256,468.493 346.042,467.166C345.871,465.796 345.892,464.661 346.106,463.762C346.577,461.279 347.829,458.946 349.863,456.762C351.896,454.579 354.09,453.487 356.445,453.487C357.387,453.487 358.115,453.701 358.629,454.129C358.714,454.215 358.843,454.258 359.014,454.258C359.142,454.258 359.271,454.129 359.399,453.872C359.485,453.744 359.592,453.519 359.72,453.198C359.849,452.877 359.956,452.631 360.041,452.46C361.625,448.778 362.524,446.744 362.738,446.359C363.423,444.775 364.451,443.169 365.821,441.543L366.784,440.579C367.255,440.28 367.619,440.13 367.876,440.13C368.133,440.13 368.432,440.258 368.775,440.515C369.16,440.729 369.524,440.9 369.867,441.029C370.68,441.329 371.151,441.949 371.279,442.891C371.408,443.79 371.408,444.668 371.279,445.524C370.98,447.579 370.766,449.013 370.637,449.827C368.625,461.514 367.619,469.884 367.619,474.936C367.619,478.104 368.368,481.122 369.867,483.991C370.081,484.376 369.995,484.783 369.61,485.211C369.396,485.425 369.182,485.532 368.968,485.532C368.796,485.532 368.647,485.489 368.518,485.404C367.319,484.804 366.485,483.948 366.014,482.835C364.558,479.324 363.937,475.6 364.151,471.661C364.408,466.352 365.157,459.695 366.399,451.689C366.485,450.918 366.485,450.34 366.399,449.955ZM354.775,464.147C354.861,464.105 354.968,463.976 355.097,463.762C355.225,463.548 355.739,462.735 356.638,461.322C356.852,460.894 357.087,460.487 357.344,460.102L357.344,459.909C357.344,459.823 357.301,459.781 357.216,459.781C356.616,459.781 356.081,460.273 355.61,461.258C355.139,462.242 354.861,463.098 354.775,463.826C354.733,463.955 354.733,464.062 354.775,464.147Z" style="fill:white;fill-rule:nonzero;"/>
            <path d="M375.454,461.707L374.683,460.551C373.912,459.053 373.805,457.554 374.362,456.056C374.619,455.2 375.079,454.386 375.743,453.616C376.406,452.845 377.123,452.46 377.894,452.46C378.194,452.46 378.515,452.524 378.857,452.652C382.154,453.723 384.187,455.521 384.958,458.047C385.258,459.117 385.386,460.23 385.343,461.386L385.343,462.349C385.343,462.692 385.493,462.82 385.793,462.735C387.462,462.392 389.303,461.728 391.316,460.744C391.744,460.573 392.043,460.487 392.215,460.487C392.514,460.487 392.793,460.615 393.049,460.872C393.135,460.958 393.328,461.054 393.627,461.161C393.927,461.268 394.098,461.343 394.141,461.386C394.484,461.643 394.526,462.007 394.27,462.478C394.184,462.649 393.884,462.884 393.371,463.184C390.545,464.64 387.891,465.453 385.407,465.624C384.979,465.624 384.701,465.86 384.573,466.331C383.588,470.312 382.154,472.71 380.27,473.523C379.756,473.78 379.264,473.909 378.793,473.909C378.279,473.909 377.744,473.759 377.188,473.459C374.961,472.389 373.805,470.484 373.72,467.744C373.72,465.517 374.212,463.655 375.197,462.157C375.24,462.114 375.282,462.039 375.325,461.932C375.368,461.825 375.411,461.75 375.454,461.707ZM382.325,460.166C382.325,459.995 382.304,459.738 382.261,459.395C382.218,459.053 382.197,458.796 382.197,458.625C381.683,456.27 380.805,455.093 379.564,455.093C379.007,455.093 378.558,455.349 378.215,455.863C377.744,456.677 377.444,457.49 377.316,458.304C377.102,460.059 377.808,461.365 379.435,462.221C379.906,462.392 380.57,462.563 381.426,462.735C381.811,462.735 382.047,462.542 382.132,462.157C382.175,461.943 382.218,461.611 382.261,461.161C382.304,460.712 382.325,460.38 382.325,460.166ZM377.123,468.129C377.123,468.771 377.166,469.263 377.252,469.606C377.38,470.419 377.573,470.869 377.83,470.954L377.958,470.954L378.087,471.019C378.386,471.019 378.707,470.826 379.05,470.441C379.392,470.055 379.649,469.692 379.82,469.349C380.206,468.536 380.57,467.744 380.912,466.973C381.255,466.202 381.405,465.624 381.362,465.239C381.019,465.068 380.548,464.854 379.949,464.597C379.778,464.511 379.553,464.394 379.275,464.244C378.996,464.094 378.814,463.998 378.729,463.955C378.558,463.869 378.429,463.826 378.343,463.826C378.172,463.826 378.022,463.998 377.894,464.34C377.466,465.196 377.209,466.459 377.123,468.129Z" style="fill:white;fill-rule:nonzero;"/>
            <path d="M403.003,459.524L403.067,459.588C403.581,459.16 404.908,458.282 407.049,456.955C407.948,456.356 409.339,455.457 411.223,454.258C411.951,453.787 412.679,453.402 413.407,453.102C413.749,453.016 414.006,452.973 414.177,452.973C414.477,452.973 414.755,453.038 415.012,453.166C415.226,453.294 415.579,453.487 416.072,453.744C416.564,454.001 416.939,454.194 417.195,454.322C418.052,454.75 418.458,455.478 418.416,456.505C418.159,459.16 417.987,461.151 417.902,462.478C417.816,463.291 417.795,463.783 417.838,463.955L417.966,463.955C418.18,463.955 418.458,463.826 418.801,463.569C418.929,463.484 419.486,463.163 420.471,462.606C421.455,462.05 422.204,461.621 422.718,461.322C422.889,461.193 423.157,461.043 423.521,460.872C423.885,460.701 424.11,460.594 424.195,460.551C424.495,460.423 424.773,460.358 425.03,460.358C425.587,460.358 426.293,460.701 427.149,461.386C427.449,461.514 427.513,461.793 427.342,462.221C427.128,462.563 426.807,462.82 426.379,462.991C424.152,463.89 421.177,465.603 417.452,468.129C416.981,468.471 416.639,468.964 416.425,469.606C413.813,480.951 409.768,487.501 404.288,489.257C403.817,489.428 403.346,489.514 402.875,489.514C401.805,489.514 400.606,488.936 399.279,487.78C398.765,487.394 398.508,486.752 398.508,485.853C398.465,485.168 398.636,484.355 399.022,483.413C400.606,479.474 404.951,474.465 412.058,468.386C412.657,467.829 413.021,467.23 413.15,466.588C413.15,466.416 413.407,464.79 413.92,461.707C414.006,461.108 414.006,460.658 413.92,460.358C413.878,460.358 413.813,460.337 413.728,460.294C413.556,460.294 413.385,460.38 413.214,460.551C408.761,464.575 405.122,467.422 402.297,469.092C400.584,470.034 399.257,470.505 398.315,470.505C397.759,470.505 397.138,470.334 396.453,469.991C396.153,469.82 395.725,469.552 395.169,469.188C394.612,468.825 394.248,468.6 394.077,468.514C393.991,468.429 393.841,468.332 393.627,468.225C393.413,468.118 393.263,468.043 393.178,468C393.092,467.915 392.91,467.797 392.632,467.647C392.354,467.497 392.15,467.38 392.022,467.294C390.695,466.352 390.267,465.068 390.738,463.441C391.294,461.429 392.525,459.449 394.43,457.501C396.335,455.553 398.315,454.065 400.37,453.038C401.312,452.567 402.104,452.31 402.746,452.267C402.918,452.224 403.174,452.203 403.517,452.203C404.33,452.203 405.037,452.417 405.636,452.845C405.85,453.016 406.182,453.209 406.632,453.423C407.081,453.637 407.349,453.765 407.434,453.808C407.734,453.979 407.948,454.172 408.076,454.386C408.248,454.772 408.269,455.071 408.141,455.285C407.584,455.97 407.135,456.356 406.792,456.441C405.765,456.784 404.609,457.554 403.324,458.753C403.025,458.967 402.939,459.245 403.067,459.588L403.003,459.524ZM411.287,473.395L411.159,473.395C410.988,473.48 410.859,473.566 410.774,473.652C408.847,475.407 406.91,477.483 404.962,479.881C403.014,482.278 401.933,484.29 401.719,485.917C401.59,486.431 401.719,486.688 402.104,486.688C402.233,486.688 402.34,486.667 402.425,486.624C403.881,486.153 404.93,485.532 405.572,484.761C407.884,482.706 409.81,479.003 411.352,473.652L411.287,473.523L411.287,473.395Z" style="fill:white;fill-rule:nonzero;"/>
            <path d="M432.03,467.166C431.773,467.166 431.602,467.187 431.516,467.23C431.345,467.273 431.088,467.294 430.745,467.294C429.932,467.294 429.076,467.016 428.177,466.459C428.005,466.331 427.717,466.149 427.31,465.913C426.903,465.678 426.614,465.496 426.443,465.368C424.345,464.083 423.617,462.242 424.259,459.845C424.859,457.704 426.015,455.703 427.727,453.84C429.44,451.978 431.366,450.383 433.507,449.056C433.592,449.013 433.785,448.917 434.085,448.767C434.384,448.617 434.62,448.521 434.791,448.478C435.134,448.393 435.391,448.35 435.562,448.35C436.076,448.35 436.525,448.542 436.91,448.928C437.339,449.356 437.681,449.57 437.938,449.57C438.195,449.57 438.441,449.623 438.676,449.73C438.912,449.837 439.158,449.987 439.415,450.18C439.672,450.373 439.864,450.49 439.993,450.533C440.25,450.619 440.507,450.876 440.764,451.304C441.02,451.775 440.978,452.267 440.635,452.781C440.164,453.466 439.329,454.365 438.131,455.478C437.617,455.992 436.183,457.533 433.828,460.102C433.271,460.701 432.651,461.643 431.966,462.927C431.794,463.184 431.698,463.387 431.677,463.537C431.655,463.687 431.709,463.794 431.837,463.858C431.966,463.923 432.18,463.998 432.479,464.083C432.907,464.212 433.55,464.447 434.406,464.79C436.118,465.646 437.296,466.438 437.938,467.166C438.109,467.337 438.28,467.422 438.452,467.422C438.623,467.422 438.773,467.358 438.901,467.23C440.571,466.074 443.161,464.468 446.672,462.413C446.8,462.328 447.014,462.21 447.314,462.06C447.613,461.91 447.849,461.793 448.02,461.707C448.448,461.407 448.855,461.258 449.24,461.258C449.754,461.258 450.375,461.536 451.103,462.092C451.445,462.349 451.424,462.606 451.038,462.863C450.996,462.863 450.931,462.906 450.846,462.991C450.76,463.077 450.696,463.12 450.653,463.12C448.812,463.505 445.387,465.453 440.378,468.964C439.736,469.349 439.479,469.884 439.608,470.569C440.207,473.352 439.779,476.049 438.323,478.661C437.724,479.731 436.846,480.662 435.69,481.454C434.534,482.246 433.378,482.642 432.222,482.642C431.195,482.642 430.189,482.107 429.204,481.037C428.776,480.566 428.669,479.924 428.883,479.11C429.483,476.541 431.152,473.93 433.892,471.276C434.021,471.147 434.224,470.954 434.502,470.698C434.781,470.441 434.984,470.248 435.112,470.12C435.155,470.077 435.241,470.002 435.369,469.895C435.498,469.788 435.594,469.713 435.658,469.67C435.722,469.627 435.787,469.542 435.851,469.413C435.915,469.285 435.904,469.178 435.819,469.092C435.562,468.279 435.155,467.786 434.599,467.615C434.342,467.53 433.485,467.38 432.03,467.166ZM436.718,472.624C436.718,472.453 436.654,472.324 436.525,472.239C436.482,472.196 436.418,472.175 436.332,472.175C436.247,472.175 436.14,472.239 436.011,472.367C434.085,474.165 432.715,476.006 431.901,477.89C431.773,478.104 431.559,478.746 431.259,479.817C431.131,480.245 431.259,480.459 431.645,480.459L431.709,480.459L431.837,480.395C435.091,479.41 436.718,476.82 436.718,472.624Z" style="fill:white;fill-rule:nonzero;"/>
        </g>
    </g>
</svg>
